<?xml version="1.0" standalone="no"?>
<!DOCTYPE svg PUBLIC "-//W3C//DTD SVG 20010904//EN"
 "http://www.w3.org/TR/2001/REC-SVG-20010904/DTD/svg10.dtd">
<svg version="1.0" xmlns="http://www.w3.org/2000/svg"
 width="980.000000pt" height="980.000000pt" viewBox="0 0 980.000000 980.000000"
 preserveAspectRatio="xMidYMid meet">
<metadata>
Created by potrace 1.11, written by Peter Selinger 2001-2013
</metadata>
<g transform="translate(0.000000,980.000000) scale(0.100000,-0.100000)"
fill="#000000" stroke="none">
<path d="M538 9780 c-172 -21 -355 -158 -437 -325 -55 -112 -74 -209 -68 -354
2 -71 12 -152 21 -185 85 -306 296 -556 591 -703 124 -62 269 -103 364 -103
86 0 57 33 1882 -2095 l936 -1090 2044 -2035 c2627 -2617 2767 -2753 2862
-2798 77 -36 170 -62 263 -74 316 -40 636 150 768 456 30 70 30 74 34 272 4
201 4 201 -23 257 -56 119 -229 317 -669 767 -143 146 -1144 1151 -2226 2234
l-1965 1968 -1545 1326 c-850 729 -1570 1348 -1602 1375 l-56 50 -7 71 c-28
291 -130 504 -337 702 -139 133 -286 217 -457 260 -108 28 -266 38 -373 24z
m292 -390 c123 -36 257 -134 357 -263 107 -136 123 -181 138 -394 8 -118 16
-177 26 -189 25 -30 868 -758 2479 -2140 l735 -631 2075 -2070 c2262 -2256
2743 -2743 2766 -2799 78 -186 -1 -391 -186 -478 -58 -27 -75 -31 -155 -31
-66 1 -99 5 -122 18 -73 39 -1036 984 -3338 3278 l-1500 1494 -749 875 c-1744
2035 -2063 2403 -2102 2418 -16 6 -94 13 -174 15 -129 3 -152 6 -208 30 -101
42 -182 96 -263 177 -128 126 -200 277 -203 420 -2 108 9 145 57 197 91 99
202 121 367 73z"/>
<path d="M8985 9780 c-127 -20 -309 -99 -435 -188 -92 -65 -219 -195 -275
-280 -96 -149 -143 -280 -174 -480 -10 -67 -20 -124 -22 -126 -29 -22 -1594
-1344 -1909 -1611 -712 -606 -920 -787 -920 -802 1 -20 222 -273 237 -270 11
2 441 364 1813 1526 997 845 1127 957 1145 985 9 14 20 65 26 123 28 285 40
329 118 439 117 166 292 282 471 314 148 27 277 -39 325 -164 13 -35 16 -65
13 -133 -8 -152 -72 -276 -218 -424 -147 -149 -270 -198 -488 -199 -75 0 -114
-5 -138 -16 -45 -22 -236 -240 -1271 -1459 -182 -214 -545 -642 -807 -950
l-476 -560 68 -64 c92 -88 193 -171 208 -171 21 0 365 399 1656 1921 l777 916
91 7 c253 19 482 127 666 313 251 252 363 607 287 908 -28 112 -113 247 -201
318 -49 40 -165 93 -244 112 -81 19 -246 27 -323 15z"/>
<path d="M1919 2983 c-1517 -1520 -1770 -1778 -1837 -1876 -63 -90 -86 -208
-79 -394 5 -148 23 -223 74 -313 46 -81 126 -172 203 -233 137 -110 251 -147
453 -147 122 0 225 17 303 50 73 32 220 166 704 644 866 856 2830 2821 2830
2831 0 6 -58 69 -130 140 l-129 129 -1403 -1400 c-772 -769 -1542 -1533 -1711
-1696 -280 -270 -313 -299 -359 -313 -111 -33 -243 -5 -343 71 -65 49 -125
190 -125 292 0 107 1 109 289 409 146 153 912 925 1701 1717 l1435 1438 -128
124 c-71 68 -134 124 -141 124 -6 0 -730 -719 -1607 -1597z"/>
</g>
</svg>
